<svg id="visual" viewBox="0 0 900 600" width="900" height="600" xmlns="http://www.w3.org/2000/svg" xmlns:xlink="http://www.w3.org/1999/xlink" version="1.1"><path d="M0 474L21.5 480.7C43 487.3 86 500.7 128.8 509.7C171.7 518.7 214.3 523.3 257.2 527.3C300 531.3 343 534.7 385.8 532.7C428.7 530.7 471.3 523.3 514.2 524.2C557 525 600 534 642.8 534.8C685.7 535.7 728.3 528.3 771.2 522.2C814 516 857 511 878.5 508.5L900 506L900 601L878.5 601C857 601 814 601 771.2 601C728.3 601 685.7 601 642.8 601C600 601 557 601 514.2 601C471.3 601 428.7 601 385.8 601C343 601 300 601 257.2 601C214.3 601 171.7 601 128.8 601C86 601 43 601 21.5 601L0 601Z" fill="#bff1b2" stroke-linecap="round" stroke-linejoin="miter"></path></svg>